<svg width="344" height="142" viewBox="0 0 344 142" fill="none" xmlns="http://www.w3.org/2000/svg">
<path d="M125.832 98C125.619 98 125.512 97.8933 125.512 97.68L125.576 90.704L141.256 60.752H126.408C126.237 60.752 126.152 60.6667 126.152 60.496V53.776C126.152 53.5627 126.237 53.456 126.408 53.456H149.576C149.789 53.456 149.896 53.5627 149.896 53.776V60.688L134.28 90.512H149.704C149.875 90.512 149.96 90.6187 149.96 90.832L150.024 97.68C150.024 97.8933 149.917 98 149.704 98H125.832ZM159.948 98C159.777 98 159.671 97.8933 159.628 97.68L152.076 53.712C152.033 53.5413 152.097 53.456 152.268 53.456H159.436C159.607 53.456 159.713 53.5413 159.756 53.712L163.852 82.64L168.076 53.712C168.119 53.5413 168.247 53.456 168.46 53.456H174.22C174.391 53.456 174.497 53.5413 174.54 53.712L178.7 82.64L182.86 53.712C182.903 53.5413 183.009 53.456 183.18 53.456H190.284C190.497 53.456 190.583 53.5413 190.54 53.712L182.924 97.68C182.881 97.7653 182.817 97.8507 182.732 97.936C182.647 97.9787 182.604 98 182.604 98H174.86C174.732 98 174.625 97.8933 174.54 97.68L171.276 74.704L168.012 97.68C167.969 97.8933 167.863 98 167.692 98H159.948ZM194.566 98C194.395 98 194.31 97.8933 194.31 97.68L194.374 53.712C194.374 53.5413 194.459 53.456 194.63 53.456H215.174C215.345 53.456 215.43 53.5627 215.43 53.776V60.944C215.43 61.1147 215.345 61.2 215.174 61.2H202.054V71.184H215.174C215.345 71.184 215.43 71.2693 215.43 71.44L215.494 78.672C215.494 78.8427 215.409 78.928 215.238 78.928H202.054V90.128H215.238C215.409 90.128 215.494 90.2347 215.494 90.448V97.744C215.494 97.9147 215.409 98 215.238 98H194.566ZM221.441 98C221.27 98 221.185 97.8933 221.185 97.68L221.249 53.712C221.249 53.5413 221.334 53.456 221.505 53.456H242.049C242.22 53.456 242.305 53.5627 242.305 53.776V60.944C242.305 61.1147 242.22 61.2 242.049 61.2H228.929V71.184H242.049C242.22 71.184 242.305 71.2693 242.305 71.44L242.369 78.672C242.369 78.8427 242.284 78.928 242.113 78.928H228.929V90.128H242.113C242.284 90.128 242.369 90.2347 242.369 90.448V97.744C242.369 97.9147 242.284 98 242.113 98H221.441ZM254.46 98C254.289 98 254.204 97.8933 254.204 97.68V61.2H245.884C245.671 61.2 245.564 61.0933 245.564 60.88L245.628 53.712C245.628 53.5413 245.713 53.456 245.884 53.456H270.204C270.417 53.456 270.524 53.5413 270.524 53.712V60.88C270.524 61.0933 270.439 61.2 270.268 61.2H261.884L261.948 97.68C261.948 97.8933 261.863 98 261.692 98H254.46ZM273.941 98C273.77 98 273.685 97.8933 273.685 97.68L273.749 53.712C273.749 53.5413 273.834 53.456 274.005 53.456H294.549C294.72 53.456 294.805 53.5627 294.805 53.776V60.944C294.805 61.1147 294.72 61.2 294.549 61.2H281.429V71.184H294.549C294.72 71.184 294.805 71.2693 294.805 71.44L294.869 78.672C294.869 78.8427 294.784 78.928 294.613 78.928H281.429V90.128H294.613C294.784 90.128 294.869 90.2347 294.869 90.448V97.744C294.869 97.9147 294.784 98 294.613 98H273.941ZM300.816 98C300.645 98 300.56 97.8933 300.56 97.68L300.688 53.712C300.688 53.5413 300.773 53.456 300.944 53.456H313.872C316.176 53.456 318.288 54.032 320.208 55.184C322.171 56.2933 323.728 57.808 324.88 59.728C326.032 61.6053 326.608 63.7387 326.608 66.128C326.608 67.7067 326.373 69.136 325.904 70.416C325.435 71.6533 324.88 72.72 324.24 73.616C323.6 74.4693 323.024 75.1093 322.512 75.536C324.816 78.096 325.968 81.104 325.968 84.56L326.032 97.68C326.032 97.8933 325.925 98 325.712 98H318.48C318.309 98 318.224 97.936 318.224 97.808V84.56C318.224 83.024 317.669 81.7013 316.56 80.592C315.493 79.44 314.171 78.864 312.592 78.864H308.368L308.304 97.68C308.304 97.8933 308.219 98 308.048 98H300.816ZM308.368 71.184H313.872C315.195 71.184 316.368 70.6933 317.392 69.712C318.416 68.7307 318.928 67.536 318.928 66.128C318.928 64.7627 318.416 63.5893 317.392 62.608C316.411 61.6267 315.237 61.136 313.872 61.136H308.368V71.184Z" fill="black"/>
<path d="M36.457 43.1326C35.7341 40.1313 38.3342 37.4093 41.2011 38.1661L80.8321 48.6273C83.7737 49.4038 84.7848 53.2405 82.6397 55.4862L53.0015 86.5138C50.8564 88.7595 47.1915 87.701 46.4498 84.6215L36.457 43.1326Z" fill="#D9D9D9"/>
<path d="M99.1841 98.8674C99.907 101.869 97.307 104.591 94.44 103.834L54.8091 93.3727C51.8675 92.5962 50.8564 88.7595 53.0015 86.5138L82.6397 55.4862C84.7848 53.2405 88.4497 54.299 89.1914 57.3785L99.1841 98.8674Z" fill="#D9D9D9"/>
<path d="M95.7392 36.6813C98.7177 35.7486 101.493 38.6544 100.602 41.7726L88.5896 83.8144C87.7419 86.7812 84.1748 87.7243 82.0832 85.5346L53.9368 56.0687C51.8452 53.8791 52.7461 50.1448 55.58 49.2573L95.7392 36.6813Z" fill="#D9D9D9"/>
<path d="M39.902 105.319C36.9234 106.251 34.1477 103.346 35.0387 100.227L47.0516 58.1856C47.8993 55.2188 51.4663 54.2757 53.5579 56.4654L81.7043 85.9313C83.7959 88.1209 82.8951 91.8552 80.0612 92.7427L39.902 105.319Z" fill="#D9D9D9"/>
<path d="M47 48C53.7407 52.7222 72.2 59.3333 89 48L47 93C53.4815 88 74.3778 81 89 93" stroke="black" stroke-width="11" stroke-linecap="round" stroke-linejoin="round"/>
</svg>
