<svg width="136" height="142" viewBox="0 0 136 142" fill="none" xmlns="http://www.w3.org/2000/svg">
<path d="M36.457 43.1326C35.7341 40.1313 38.3342 37.4093 41.2011 38.1661L80.8321 48.6273C83.7737 49.4038 84.7848 53.2405 82.6397 55.4862L53.0015 86.5138C50.8564 88.7595 47.1915 87.701 46.4498 84.6215L36.457 43.1326Z" fill="#D9D9D9"/>
<path d="M99.1841 98.8674C99.907 101.869 97.307 104.591 94.44 103.834L54.8091 93.3727C51.8675 92.5962 50.8564 88.7595 53.0015 86.5138L82.6397 55.4862C84.7848 53.2405 88.4497 54.299 89.1914 57.3785L99.1841 98.8674Z" fill="#D9D9D9"/>
<path d="M95.7392 36.6813C98.7177 35.7486 101.493 38.6544 100.602 41.7726L88.5896 83.8144C87.7419 86.7812 84.1748 87.7243 82.0832 85.5346L53.9368 56.0687C51.8452 53.8791 52.7461 50.1448 55.58 49.2573L95.7392 36.6813Z" fill="#D9D9D9"/>
<path d="M39.902 105.319C36.9234 106.251 34.1477 103.346 35.0387 100.227L47.0516 58.1856C47.8993 55.2188 51.4663 54.2757 53.5579 56.4654L81.7043 85.9313C83.7959 88.1209 82.8951 91.8552 80.0612 92.7427L39.902 105.319Z" fill="#D9D9D9"/>
<path d="M47 48C53.7407 52.7222 72.2 59.3333 89 48L47 93C53.4815 88 74.3778 81 89 93" stroke="black" stroke-width="11" stroke-linecap="round" stroke-linejoin="round"/>
</svg>
